<?xml version="1.0" encoding="utf-8"?>
<!-- Generator: Adobe Illustrator 25.2.1, SVG Export Plug-In . SVG Version: 6.00 Build 0)  -->
<svg version="1.1" id="Layer_1" xmlns="http://www.w3.org/2000/svg" xmlns:xlink="http://www.w3.org/1999/xlink" x="0px" y="0px"
	 viewBox="0 0 1242 2208" style="enable-background:new 0 0 1242 2208;" xml:space="preserve">
<style type="text/css">
	.st0{fill:#F2D852;stroke:#000000;stroke-miterlimit:10;}
	.st1{fill:#3BBFBF;stroke:#000000;stroke-miterlimit:10;}
	.st2{fill:#5A4594;stroke:#000000;stroke-miterlimit:10;}
	.st3{fill:#F24B44;stroke:#000000;stroke-miterlimit:10;}
	.st4{fill:#F24B6A;stroke:#000000;stroke-miterlimit:10;}
	.st5{fill:#3BBFBF;}
	.st6{fill:#F2D852;}
	.st7{fill:#5A4594;}
	.st8{fill:#F24B44;}
</style>
<rect x="-1129.5" y="654.5" class="st0" width="99" height="99"/>
<rect x="-952.5" y="654.5" class="st1" width="120" height="120"/>
<rect x="-747.5" y="654.5" class="st2" width="120" height="120"/>
<rect x="-558.5" y="667.5" class="st3" width="86" height="86"/>
<rect x="-397.5" y="654.5" class="st4" width="146" height="146"/>
<circle class="st5" cx="1964.5" cy="1331.5" r="227.5"/>
<path class="st6" d="M2617.27,1183.22c-0.04,20.8-22.58,33.75-40.57,23.32l-185.56-107.61l-185.56-107.61
	c-17.99-10.43-17.94-36.43,0.09-46.8l185.97-106.9l185.97-106.9c18.03-10.36,40.52,2.68,40.48,23.48l-0.41,214.51L2617.27,1183.22z"
	/>
<circle class="st7" cx="1173" cy="2168" r="296.5"/>
<path class="st8" d="M274.03,2282.73l-387.18-88.99c-47.02-10.81-76.38-57.69-65.57-104.71l88.99-387.18
	c10.81-47.02,57.69-76.38,104.71-65.57l387.18,88.99c47.02,10.81,76.38,57.69,65.57,104.71l-88.99,387.18
	C367.93,2264.18,321.05,2293.53,274.03,2282.73z"/>
<path class="st8" d="M1274.83,1793.86l-124.92,25.7c-22.63,4.66-44.75-9.92-49.4-32.54l-25.7-124.92
	c-4.66-22.63,9.92-44.75,32.54-49.4l124.92-25.7c22.63-4.66,44.75,9.92,49.4,32.54l25.7,124.92
	C1312.03,1767.08,1297.46,1789.2,1274.83,1793.86z"/>
<path class="st6" d="M642.17,1682.04l-115.11-54.92c-20.85-9.95-29.69-34.92-19.74-55.77l54.92-115.11
	c9.95-20.85,34.92-29.69,55.77-19.74l115.11,54.92c20.85,9.95,29.69,34.92,19.74,55.77l-54.92,115.11
	C687.99,1683.15,663.02,1691.99,642.17,1682.04z"/>
<path class="st5" d="M199.11,1527.64c12.93-2.84,24.1,9.38,20.09,22l-41.29,130.19l-41.29,130.19c-4,12.62-20.17,16.18-29.1,6.4
	l-92.1-100.86l-92.1-100.86c-8.93-9.78-3.93-25.56,9.01-28.4l133.4-29.33L199.11,1527.64z"/>
<path class="st6" d="M1058.46,1976.44c11.36,8.64,9.12,26.34-4.04,31.86l-135.74,56.98l-135.74,56.98
	c-13.16,5.52-27.37-5.27-25.57-19.43l18.53-146.04l18.53-146.04c1.8-14.16,18.25-21.07,29.61-12.43l117.21,89.06L1058.46,1976.44z"
	/>
<path class="st7" d="M330.12,1631.34c-4.36,3.52-10.89,1.01-11.76-4.52l-9.01-57.07l-9.01-57.07c-0.87-5.53,4.57-9.94,9.8-7.93
	l53.93,20.73l53.93,20.73c5.23,2.01,6.32,8.93,1.97,12.45L375.03,1595L330.12,1631.34z"/>
<circle class="st7" cx="15" cy="1437" r="67"/>
<circle class="st7" cx="581.5" cy="1959.5" r="93.5"/>
<circle class="st8" cx="697" cy="2208" r="67"/>
<circle class="st5" cx="877" cy="1675" r="67"/>
<circle class="st6" cx="392" cy="2168" r="145"/>
</svg>
