<?xml version="1.0" encoding="utf-8"?>
<!-- Generator: Adobe Illustrator 25.2.1, SVG Export Plug-In . SVG Version: 6.00 Build 0)  -->
<svg version="1.1" id="Layer_1" xmlns="http://www.w3.org/2000/svg" xmlns:xlink="http://www.w3.org/1999/xlink" x="0px" y="0px"
	 viewBox="0 0 120 120" style="enable-background:new 0 0 120 120;" xml:space="preserve">
<style type="text/css">
	.st0{fill:#B57C4D;stroke:#333333;stroke-width:4;stroke-miterlimit:10;}
	.st1{fill:#FFFFFF;stroke:#333333;stroke-width:2;stroke-miterlimit:10;}
	.st2{fill:#333333;}
	.st3{fill:#FFEC5F;stroke:#333333;stroke-width:2;stroke-miterlimit:10;}
	.st4{fill:#D8A380;stroke:#333333;stroke-width:3;stroke-miterlimit:10;}
	.st5{opacity:0.56;fill:none;stroke:#333333;stroke-width:1.7766;stroke-linecap:round;stroke-miterlimit:10;}
	.st6{fill:#FFFFFF;}
	.st7{fill:#FFD252;stroke:#333333;stroke-width:3.2185;stroke-miterlimit:10;}
	.st8{fill:#333333;stroke:#333333;stroke-width:2.1586;stroke-linecap:round;stroke-linejoin:round;stroke-miterlimit:10;}
	.st9{fill:none;stroke:#333333;stroke-width:3;stroke-linecap:round;stroke-linejoin:round;stroke-miterlimit:10;}
	.st10{fill:#333333;stroke:#333333;stroke-width:0.939;stroke-linecap:round;stroke-linejoin:round;stroke-miterlimit:10;}
	.st11{fill:#FFFFFF;stroke:#333333;stroke-width:3.2185;stroke-linecap:round;stroke-linejoin:round;stroke-miterlimit:10;}
	.st12{fill:#F9C3D2;stroke:#333333;stroke-width:2.9637;stroke-linecap:round;stroke-linejoin:round;stroke-miterlimit:10;}
	.st13{fill:#F190AC;stroke:#333333;stroke-width:2.9637;stroke-linecap:round;stroke-linejoin:round;stroke-miterlimit:10;}
	.st14{fill:#333333;stroke:#333333;stroke-width:1.0184;stroke-linecap:round;stroke-linejoin:round;stroke-miterlimit:10;}
	.st15{fill:none;stroke:#333333;stroke-width:1.9758;stroke-linecap:round;stroke-linejoin:round;stroke-miterlimit:10;}
</style>
<path class="st12" d="M60.01,66.03c0,0-45.84,7.81-39.67,20.99s22.57,17.61,28.93,14.28S60.01,66.03,60.01,66.03z"/>
<path class="st12" d="M60.04,66.67c0,0,45.84,7.81,39.67,20.99c-6.17,13.18-22.57,17.61-28.93,14.28
	C64.42,98.6,60.04,66.67,60.04,66.67z"/>
<path class="st13" d="M60.25,63.89c3.24-9.85,13.96-32.09,46.32-41.98c2.31-0.71,4.8,0.43,5.84,2.67
	c3.77,8.12,10.36,27.91-4.65,44.58c-0.3,0.34-0.66,0.63-1.04,0.86c-3.02,1.87-16.81,8.87-43.27,0.28
	C60.82,69.46,59.37,66.57,60.25,63.89z"/>
<path class="st13" d="M59.14,63.57c-3.24-9.85-13.96-32.09-46.32-41.98c-2.31-0.71-4.8,0.43-5.84,2.67
	c-3.77,8.12-10.36,27.91,4.65,44.58c0.3,0.34,0.66,0.63,1.04,0.86c3.02,1.87,16.81,8.87,43.27,0.28
	C58.57,69.14,60.02,66.25,59.14,63.57z"/>
<ellipse class="st14" cx="60.11" cy="73.65" rx="4.26" ry="26.1"/>
<path class="st15" d="M58.71,48.99c0,0-0.41-17.36-6.56-17.8"/>
<path class="st15" d="M61.18,48.96c0,0,0.41-17.36,6.56-17.8"/>
</svg>
