<?xml version="1.0" encoding="utf-8"?>
<!-- Generator: Adobe Illustrator 25.2.1, SVG Export Plug-In . SVG Version: 6.00 Build 0)  -->
<svg version="1.1" id="Layer_1" xmlns="http://www.w3.org/2000/svg" xmlns:xlink="http://www.w3.org/1999/xlink" x="0px" y="0px"
	 viewBox="0 0 120 120" style="enable-background:new 0 0 120 120;" xml:space="preserve">
<style type="text/css">
	.st0{fill:#B57C4D;stroke:#333333;stroke-width:4;stroke-miterlimit:10;}
	.st1{fill:#FFFFFF;stroke:#333333;stroke-width:2;stroke-miterlimit:10;}
	.st2{fill:#333333;}
	.st3{fill:#FFEC5F;stroke:#333333;stroke-width:2;stroke-miterlimit:10;}
	.st4{fill:#D8A380;stroke:#333333;stroke-width:3;stroke-miterlimit:10;}
	.st5{opacity:0.56;fill:none;stroke:#333333;stroke-width:1.7766;stroke-linecap:round;stroke-miterlimit:10;}
	.st6{fill:#FFFFFF;}
	.st7{fill:#FFD252;stroke:#333333;stroke-width:3.2185;stroke-miterlimit:10;}
	.st8{fill:#333333;stroke:#333333;stroke-width:2.1586;stroke-linecap:round;stroke-linejoin:round;stroke-miterlimit:10;}
	.st9{fill:none;stroke:#333333;stroke-width:3;stroke-linecap:round;stroke-linejoin:round;stroke-miterlimit:10;}
	.st10{fill:#333333;stroke:#333333;stroke-width:0.939;stroke-linecap:round;stroke-linejoin:round;stroke-miterlimit:10;}
	.st11{fill:#FFFFFF;stroke:#333333;stroke-width:3.2185;stroke-linecap:round;stroke-linejoin:round;stroke-miterlimit:10;}
	.st12{fill:#F9C3D2;stroke:#333333;stroke-width:2.9637;stroke-linecap:round;stroke-linejoin:round;stroke-miterlimit:10;}
	.st13{fill:#F190AC;stroke:#333333;stroke-width:2.9637;stroke-linecap:round;stroke-linejoin:round;stroke-miterlimit:10;}
	.st14{fill:#333333;stroke:#333333;stroke-width:1.0184;stroke-linecap:round;stroke-linejoin:round;stroke-miterlimit:10;}
	.st15{fill:none;stroke:#333333;stroke-width:1.9758;stroke-linecap:round;stroke-linejoin:round;stroke-miterlimit:10;}
</style>
<path class="st0" d="M57.44,12.15c9.21-0.27,22.16,4.75,22.16,4.75S94.03,0.07,96.03,3.96s3.49,18.92,3.49,18.92
	s29.68,91.48-15.93,93.1c-13.94,0.5-38.84,1.99-55.27,0C-7.36,111.66,15.45,22.9,15.45,22.9s1.49-15.03,3.49-18.92
	s16.43,12.95,16.43,12.95s12.95-5.03,22.16-4.75"/>
<circle class="st1" cx="80.09" cy="42.3" r="16.43"/>
<circle class="st1" cx="34.79" cy="42.3" r="16.43"/>
<circle class="st2" cx="75.36" cy="46.03" r="8.22"/>
<circle class="st2" cx="40.01" cy="46.03" r="8.22"/>
<path class="st3" d="M62.63,53.95c0.04-2.19-1.15-3.34-2.84-4.14c-1.12-0.53-4.76-1.57-7.08,1.46c-2.33,3.05,1.47,8.43,3.53,10.95
	c0.67,0.81,1.89,0.9,2.64,0.16C60.39,60.87,62.56,58.02,62.63,53.95z"/>
<path class="st4" d="M70.45,116.59c2.67-0.01,5.08-1.63,6.07-4.11c3.82-9.52,9.98-32.43-18.98-32.85
	C28.16,79.21,34,103.41,37.43,112.94c0.82,2.27,2.96,3.78,5.37,3.77L70.45,116.59z"/>
<path class="st5" d="M73.62,93.75c0,0-4.3,6.47-9.21,0"/>
<path class="st5" d="M61.67,93.75c0,0-4.3,6.47-9.21,0"/>
<path class="st5" d="M49.23,93.75c0,0-4.3,6.47-9.21,0"/>
<path class="st5" d="M53.71,103.04c0,0-4.3,6.47-9.21,0"/>
<path class="st5" d="M68.14,103.54c0,0-4.3,6.47-9.21,0"/>
<circle class="st6" cx="77.6" cy="43.79" r="2.24"/>
<circle class="st6" cx="42.25" cy="43.79" r="2.24"/>
</svg>
