<?xml version="1.0" encoding="utf-8"?>
<!-- Generator: Adobe Illustrator 25.2.1, SVG Export Plug-In . SVG Version: 6.00 Build 0)  -->
<svg version="1.1" id="Layer_1" xmlns="http://www.w3.org/2000/svg" xmlns:xlink="http://www.w3.org/1999/xlink" x="0px" y="0px"
	 viewBox="0 0 120 120" style="enable-background:new 0 0 120 120;" xml:space="preserve">
<style type="text/css">
	.st0{fill:#B57C4D;stroke:#333333;stroke-width:4;stroke-miterlimit:10;}
	.st1{fill:#FFFFFF;stroke:#333333;stroke-width:2;stroke-miterlimit:10;}
	.st2{fill:#333333;}
	.st3{fill:#FFEC5F;stroke:#333333;stroke-width:2;stroke-miterlimit:10;}
	.st4{fill:#D8A380;stroke:#333333;stroke-width:3;stroke-miterlimit:10;}
	.st5{opacity:0.56;fill:none;stroke:#333333;stroke-width:1.7766;stroke-linecap:round;stroke-miterlimit:10;}
	.st6{fill:#FFFFFF;}
	.st7{fill:#FFD252;stroke:#333333;stroke-width:3.2185;stroke-miterlimit:10;}
	.st8{fill:#333333;stroke:#333333;stroke-width:2.1586;stroke-linecap:round;stroke-linejoin:round;stroke-miterlimit:10;}
	.st9{fill:none;stroke:#333333;stroke-width:3;stroke-linecap:round;stroke-linejoin:round;stroke-miterlimit:10;}
	.st10{fill:#333333;stroke:#333333;stroke-width:0.939;stroke-linecap:round;stroke-linejoin:round;stroke-miterlimit:10;}
	.st11{fill:#FFFFFF;stroke:#333333;stroke-width:3.2185;stroke-linecap:round;stroke-linejoin:round;stroke-miterlimit:10;}
	.st12{fill:#F9C3D2;stroke:#333333;stroke-width:2.9637;stroke-linecap:round;stroke-linejoin:round;stroke-miterlimit:10;}
	.st13{fill:#F190AC;stroke:#333333;stroke-width:2.9637;stroke-linecap:round;stroke-linejoin:round;stroke-miterlimit:10;}
	.st14{fill:#333333;stroke:#333333;stroke-width:1.0184;stroke-linecap:round;stroke-linejoin:round;stroke-miterlimit:10;}
	.st15{fill:none;stroke:#333333;stroke-width:1.9758;stroke-linecap:round;stroke-linejoin:round;stroke-miterlimit:10;}
</style>
<circle class="st2" cx="67.13" cy="50.09" r="15.35"/>
<ellipse transform="matrix(0.6844 -0.7291 0.7291 0.6844 -40.3428 56.1507)" class="st7" cx="44.69" cy="74.68" rx="35.26" ry="29.86"/>
<path class="st8" d="M74.22,83.32c0,0-4.32-33.11-39.58-37.79l-8.08,5.27c0,0,32.69,8.01,41.25,42.8L74.22,83.32z"/>
<path class="st8" d="M57.78,102.16c0,0-11.16-30.37-41.62-38.28l-3.04,8.33c0,0,29.14,15.69,34.44,34.26L57.78,102.16z"/>
<path class="st9" d="M72.69,35.78c0,0,9.91-11.71,2.96-18.43"/>
<path class="st9" d="M80.21,44.1c0,0,11.36-11.65,19.68-5.81"/>
<polygon class="st10" points="18.26,98.1 21.21,100.86 24.16,103.63 19.56,105.57 14.96,107.52 16.61,102.81 "/>
<path class="st11" d="M58.89,68.1c0,0-15.98,41.49,14.02,41.12S82.84,77.45,58.89,68.1z"/>
<path class="st11" d="M59.01,68.3c0,0,22.99,52.17,49.92,24.71S89.23,55.13,59.01,68.3z"/>
<path class="st11" d="M46.62,58.28c0,0-37.93,23.19-42.98-6.37S33.11,36.41,46.62,58.28z"/>
<path class="st11" d="M46.41,58.2c0,0-55.46-13.21-33.31-44.65S53.91,26.1,46.41,58.2z"/>
</svg>
