<?xml version="1.0" encoding="utf-8"?>
<!-- Generator: Adobe Illustrator 25.2.1, SVG Export Plug-In . SVG Version: 6.00 Build 0)  -->
<svg version="1.1" id="Layer_1" xmlns="http://www.w3.org/2000/svg" xmlns:xlink="http://www.w3.org/1999/xlink" x="0px" y="0px"
	 viewBox="0 0 192 192" style="enable-background:new 0 0 192 192;" xml:space="preserve">
<style type="text/css">
	.st0{stroke:#000000;stroke-width:3.9732;stroke-miterlimit:10;}
	.st1{fill:#FFFFFF;stroke:#000000;stroke-width:5;stroke-miterlimit:10;}
	.st2{fill:#3BBFBF;stroke:#000000;stroke-width:3.9732;stroke-miterlimit:10;}
	.st3{stroke:#000000;stroke-width:9.2778;stroke-miterlimit:10;}
	.st4{fill:#FFFFFF;stroke:#000000;stroke-width:7;stroke-miterlimit:10;}
	.st5{fill:#FFFFFF;stroke:#000000;stroke-width:4.3393;stroke-miterlimit:10;}
	.st6{fill:#FFFFFF;stroke:#000000;stroke-width:4.1266;stroke-miterlimit:10;}
	.st7{clip-path:url(#SVGID_2_);}
	.st8{fill:#FFFFFF;stroke:#000000;stroke-width:7.2781;stroke-miterlimit:10;}
	.st9{fill:none;stroke:#000000;stroke-width:11.7619;stroke-miterlimit:10;}
	.st10{fill:#FFFFFF;stroke:#000000;stroke-width:3.9266;stroke-miterlimit:10;}
	.st11{fill:#FFFFFF;stroke:#000000;stroke-width:5.855;stroke-miterlimit:10;}
	.st12{fill:#FFFFFF;}
	.st13{fill:none;stroke:#000000;stroke-width:5;stroke-miterlimit:10;}
	.st14{fill:none;stroke:#000000;stroke-width:5;stroke-miterlimit:10;stroke-dasharray:35.57,35.57;}
	.st15{fill:none;stroke:#000000;stroke-width:5;stroke-miterlimit:10;stroke-dasharray:36.5383,36.5383;}
	.st16{fill:none;stroke:#000000;stroke-width:5;stroke-miterlimit:10;stroke-dasharray:37.1027,37.1027;}
</style>
<rect x="-6.47" class="st0" width="203.76" height="203.76"/>
<path class="st2" d="M152.72,54.58h-30.09c-1.97,0-3.78-0.21-5.34-1.33c-1.54-1.1-2.5-4.27,0.3-8.22c3.29-4.63,2.47-9.64,1.79-11.35
	c-2.84-7.17-9.74-10.6-18.07-7.27c-4.11,1.64-7.39,7.42-5.36,15.29c2.35,9.1,2.91,12.91-7.16,12.88
	c-10.46-0.03-24.81,0.08-24.81,0.08v29.06c0,2.14-0.78,4.2-2.22,5.78c-2.39,2.63-6.94,0.15-12.84-0.65
	c-6.34-0.86-10.83,4.96-10.81,12.08c0.02,6.36,7.52,14.28,15.26,10.81c4.73-2.12,11.25-7.16,13,3.92v31.01h32.25
	c1.92,0,3.1,1.51,3.99,3.21c1.67,3.17-0.75,9.36-1.75,11.28c-2.15,4.1-1.47,17.57,11.79,17.48c13.44-0.1,10.9-14.92,9.54-17.65
	c-3.94-7.94-1.91-12.41,0.95-12.41s29.58,0,29.58,0V118.4c0-2.19-1.16-4.25-3.09-5.29c-1.85-1-4.72-2.12-8.37-0.81
	c-15.4,5.55-21.8-11.52-13.07-19.65c6.55-6.1,12.24-3.96,20.23,0.56c4.29,2.43,4.02-2.67,4.02-2.67L152.72,54.58z"/>
</svg>
